<svg xmlns="http://www.w3.org/2000/svg" viewBox="0 0 24 16" role="img" aria-label="United States flag">
  <rect width="24" height="16" fill="#B22234"/>
  <g fill="#fff">
    <rect y="1" width="24" height="1"/>
    <rect y="3" width="24" height="1"/>
    <rect y="5" width="24" height="1"/>
    <rect y="7" width="24" height="1"/>
    <rect y="9" width="24" height="1"/>
    <rect y="11" width="24" height="1"/>
    <rect y="13" width="24" height="1"/>
    <rect y="15" width="24" height="1"/>
  </g>
  <rect width="10.5" height="7" fill="#3C3B6E"/>
  <g fill="#fff">
    <circle cx="1.2" cy="1.1" r="0.35"/>
    <circle cx="3" cy="1.1" r="0.35"/>
    <circle cx="4.8" cy="1.1" r="0.35"/>
    <circle cx="6.6" cy="1.1" r="0.35"/>
    <circle cx="8.4" cy="1.1" r="0.35"/>
    <circle cx="2.1" cy="2.2" r="0.35"/>
    <circle cx="3.9" cy="2.2" r="0.35"/>
    <circle cx="5.7" cy="2.2" r="0.35"/>
    <circle cx="7.5" cy="2.2" r="0.35"/>
    <circle cx="1.2" cy="3.3" r="0.35"/>
    <circle cx="3" cy="3.3" r="0.35"/>
    <circle cx="4.8" cy="3.3" r="0.35"/>
    <circle cx="6.6" cy="3.3" r="0.35"/>
    <circle cx="8.4" cy="3.3" r="0.35"/>
    <circle cx="2.1" cy="4.4" r="0.35"/>
    <circle cx="3.9" cy="4.4" r="0.35"/>
    <circle cx="5.7" cy="4.4" r="0.35"/>
    <circle cx="7.5" cy="4.4" r="0.35"/>
    <circle cx="1.2" cy="5.5" r="0.35"/>
    <circle cx="3" cy="5.5" r="0.35"/>
    <circle cx="4.8" cy="5.5" r="0.35"/>
    <circle cx="6.6" cy="5.5" r="0.35"/>
    <circle cx="8.4" cy="5.5" r="0.35"/>
  </g>
</svg>
